PathFileType	4	(X/Y/Z)	Gait_latera_markers.trc
DataRate	CameraRate	NumFrames	NumMarkers	Units	OrigDataRate	OrigDataStartFrame	OrigNumFrames
100	100	10	38	m	100	61	96
Frame#	Time	RASI			RPSI			LPSI			LASI			RTROCH			RTHI			RTHI2			RTHI3			RTHI4			RKNE			RKNEM			RTIB			RTIB2			RTIB3			RTIB4			RANK			RANKM			RHEE			RTOE			RTOEL			RTOEM			LTROCH			LTHI			LTHI2			LTHI3			LTHI4			LKNE			LKNEM			LTIB			LTIB2			LTIB3			LTIB4			LANK			LANKM			LHEE			LTOE			LTOEL			LTOEM
		X1	Y1	Z1	X2	Y2	Z2	X3	Y3	Z3	X4	Y4	Z4	X5	Y5	Z5	X6	Y6	Z6	X7	Y7	Z7	X8	Y8	Z8	X9	Y9	Z9	X10	Y10	Z10	X11	Y11	Z11	X12	Y12	Z12	X13	Y13	Z13	X14	Y14	Z14	X15	Y15	Z15	X16	Y16	Z16	X17	Y17	Z17	X18	Y18	Z18	X19	Y19	Z19	X20	Y20	Z20	X21	Y21	Z21	X22	Y22	Z22	X23	Y23	Z23	X24	Y24	Z24	X25	Y25	Z25	X26	Y26	Z26	X27	Y27	Z27	X28	Y28	Z28	X29	Y29	Z29	X30	Y30	Z30	X31	Y31	Z31	X32	Y32	Z32	X33	Y33	Z33	X34	Y34	Z34	X35	Y35	Z35	X36	Y36	Z36	X37	Y37	Z37	X38	Y38	Z38

61	0.600000	-0.306022	0.965419	-0.234939	-0.251080	0.996167	-0.422113	-0.155328	0.987366	-0.419470	-0.080285	0.965620	-0.236609	-0.369241	0.887665	-0.295108	-0.386020	0.771469	-0.265919	-0.380729	0.797108	-0.204512	-0.382662	0.725286	-0.163367	-0.386564	0.694197	-0.218382	-0.368593	0.555273	-0.153349	-0.256268	0.564262	-0.128070	-0.381748	0.416848	-0.156199	-0.370519	0.426486	-0.093649	-0.367539	0.339572	-0.079411	-0.379862	0.335542	-0.145510	-0.332259	0.116955	-0.102226	-0.273066	0.140031	-0.051395	-0.272082	0.055182	-0.125715	-0.370081	0.109371	0.079037	-0.404555	0.061845	0.023927	-0.311655	0.093303	0.086693	-0.034522	0.897205	-0.323216	-0.036744	0.692661	-0.328002	-0.050485	0.684917	-0.269288	-0.068366	0.605835	-0.287577	-0.055132	0.610206	-0.350143	-0.076112	0.522461	-0.352039	-0.182517	0.542847	-0.340840	-0.072830	0.310269	-0.432348	-0.091288	0.305017	-0.370394	-0.105620	0.220480	-0.392447	-0.087411	0.231071	-0.451537	-0.121077	0.099843	-0.473462	-0.193172	0.120157	-0.433542	-0.177124	0.057506	-0.526264	-0.106917	0.055963	-0.298461	-0.065726	0.043888	-0.357052	-0.162040	0.050640	-0.307191
62	0.610000	-0.306388	0.962900	-0.223072	-0.252029	0.994336	-0.410188	-0.156335	0.985847	-0.407964	-0.080638	0.963655	-0.225426	-0.369378	0.885213	-0.283207	-0.386228	0.768869	-0.255754	-0.380290	0.792895	-0.194101	-0.380611	0.721005	-0.153350	-0.386037	0.690094	-0.209090	-0.364603	0.551913	-0.146014	-0.251387	0.560492	-0.119719	-0.378322	0.413574	-0.143316	-0.368156	0.425960	-0.081296	-0.366780	0.339910	-0.062437	-0.378181	0.332803	-0.128593	-0.333703	0.115592	-0.070456	-0.275497	0.141351	-0.021387	-0.275397	0.052081	-0.090620	-0.372867	0.119309	0.110455	-0.407711	0.069399	0.057717	-0.314052	0.103401	0.119119	-0.034934	0.895844	-0.312722	-0.036846	0.691530	-0.319781	-0.050003	0.683102	-0.261241	-0.068207	0.604267	-0.280341	-0.055387	0.609291	-0.342868	-0.076139	0.521487	-0.345653	-0.181466	0.541792	-0.333201	-0.073087	0.309986	-0.428370	-0.091451	0.303873	-0.366732	-0.105805	0.220246	-0.390216	-0.087746	0.231356	-0.449032	-0.121228	0.100230	-0.472622	-0.193500	0.120278	-0.432704	-0.177329	0.057609	-0.525885	-0.106939	0.055726	-0.298394	-0.065747	0.043872	-0.357016	-0.161932	0.050468	-0.306894
63	0.620000	-0.306700	0.960343	-0.211003	-0.253361	0.992549	-0.398471	-0.157582	0.984344	-0.396655	-0.080919	0.961664	-0.214465	-0.369994	0.882253	-0.271561	-0.385933	0.764262	-0.245631	-0.379796	0.788429	-0.183779	-0.378956	0.715749	-0.143788	-0.384599	0.685719	-0.200145	-0.360794	0.547481	-0.137951	-0.246920	0.556996	-0.111731	-0.374797	0.410513	-0.131180	-0.366102	0.425723	-0.069520	-0.366018	0.340840	-0.045782	-0.375511	0.330204	-0.111809	-0.336165	0.115967	-0.040801	-0.277582	0.143348	0.007305	-0.278733	0.050518	-0.057087	-0.375453	0.130554	0.140146	-0.410540	0.077474	0.090656	-0.316553	0.114020	0.149403	-0.035294	0.894416	-0.302134	-0.037006	0.690409	-0.311581	-0.049953	0.681450	-0.252968	-0.067999	0.602363	-0.273264	-0.055569	0.608478	-0.335469	-0.076772	0.520463	-0.338847	-0.181889	0.540271	-0.326058	-0.073393	0.310251	-0.424782	-0.091714	0.302912	-0.363012	-0.105900	0.219344	-0.387588	-0.087962	0.231841	-0.446565	-0.121670	0.100805	-0.472128	-0.193870	0.120336	-0.431810	-0.177630	0.057678	-0.525514	-0.106933	0.055465	-0.298251	-0.065787	0.043832	-0.356847	-0.161922	0.050216	-0.306598
64	0.630000	-0.306874	0.957654	-0.198727	-0.254566	0.990450	-0.386300	-0.158848	0.982631	-0.385093	-0.081003	0.959389	-0.203337	-0.370366	0.879603	-0.259115	-0.386302	0.760476	-0.235903	-0.379801	0.783645	-0.173816	-0.377239	0.710311	-0.134981	-0.383579	0.681048	-0.191607	-0.357272	0.543333	-0.129687	-0.242993	0.553963	-0.103578	-0.371149	0.407175	-0.118637	-0.363923	0.425902	-0.058022	-0.365239	0.342177	-0.030485	-0.373522	0.328384	-0.095434	-0.338084	0.117679	-0.012882	-0.279790	0.146510	0.035011	-0.281197	0.049855	-0.024679	-0.378344	0.141828	0.167149	-0.413135	0.085256	0.123181	-0.319571	0.125319	0.177964	-0.035070	0.893044	-0.292275	-0.036946	0.689460	-0.303969	-0.050308	0.679530	-0.244628	-0.067963	0.601040	-0.265322	-0.055947	0.607373	-0.327877	-0.076746	0.519408	-0.332350	-0.181561	0.539056	-0.318371	-0.073711	0.310473	-0.420955	-0.091859	0.302148	-0.359276	-0.106213	0.219083	-0.385153	-0.088298	0.232113	-0.443738	-0.122010	0.101700	-0.471452	-0.194392	0.120509	-0.430951	-0.177898	0.057802	-0.524995	-0.106902	0.055098	-0.297970	-0.065861	0.043797	-0.356782	-0.161896	0.050209	-0.306462
65	0.640000	-0.306965	0.954940	-0.186342	-0.255807	0.988409	-0.374163	-0.159940	0.980833	-0.373362	-0.080861	0.957042	-0.192328	-0.370896	0.876972	-0.246604	-0.386277	0.756652	-0.226112	-0.379669	0.778795	-0.163282	-0.375590	0.704760	-0.126178	-0.382052	0.676542	-0.183364	-0.354254	0.539589	-0.120868	-0.239943	0.550753	-0.095309	-0.368807	0.405161	-0.106093	-0.362080	0.425502	-0.046526	-0.364275	0.343774	-0.014466	-0.372121	0.326854	-0.079489	-0.338824	0.118844	0.014175	-0.281042	0.149921	0.060853	-0.282423	0.050160	0.006168	-0.381608	0.152940	0.191589	-0.416403	0.094710	0.149837	-0.323054	0.136146	0.204342	-0.035267	0.891417	-0.281919	-0.037543	0.688625	-0.295848	-0.050188	0.677937	-0.236351	-0.068327	0.598746	-0.257811	-0.056298	0.606426	-0.320207	-0.077081	0.518329	-0.325378	-0.182035	0.537830	-0.310688	-0.074239	0.310784	-0.417141	-0.091977	0.301779	-0.355411	-0.106482	0.218668	-0.382542	-0.088645	0.233001	-0.441088	-0.122502	0.102876	-0.470794	-0.194908	0.120659	-0.429801	-0.178301	0.058330	-0.524687	-0.106976	0.054801	-0.297751	-0.065983	0.043785	-0.356574	-0.161820	0.050226	-0.306290
66	0.650000	-0.306934	0.952128	-0.173764	-0.257384	0.986320	-0.362039	-0.161385	0.979007	-0.361963	-0.080832	0.954946	-0.181350	-0.371036	0.874469	-0.233282	-0.385899	0.753949	-0.216188	-0.379719	0.774518	-0.153129	-0.374586	0.699627	-0.117614	-0.380531	0.672557	-0.175226	-0.352186	0.536590	-0.111645	-0.236316	0.548666	-0.085591	-0.367469	0.402137	-0.093594	-0.360626	0.424871	-0.035041	-0.363471	0.344323	0.000098	-0.371637	0.325025	-0.063758	-0.338491	0.120447	0.038660	-0.281958	0.153681	0.085314	-0.281161	0.051335	0.035546	-0.385224	0.162756	0.213744	-0.419135	0.102624	0.173639	-0.326867	0.146540	0.228223	-0.036624	0.888396	-0.270396	-0.037982	0.687425	-0.287278	-0.050339	0.675989	-0.227738	-0.068132	0.597781	-0.249658	-0.056851	0.605170	-0.312211	-0.077849	0.517435	-0.318103	-0.182062	0.536681	-0.302746	-0.074760	0.311116	-0.412989	-0.092822	0.300604	-0.351466	-0.106988	0.218304	-0.379859	-0.089479	0.233535	-0.438219	-0.123157	0.103940	-0.469919	-0.195437	0.120986	-0.428275	-0.178744	0.059966	-0.524787	-0.107058	0.054481	-0.297423	-0.066162	0.043789	-0.356325	-0.161590	0.050016	-0.305954
67	0.660000	-0.306811	0.949656	-0.161106	-0.258635	0.984286	-0.349816	-0.162676	0.977183	-0.350434	-0.080609	0.952742	-0.170433	-0.371013	0.872008	-0.219815	-0.383993	0.749822	-0.203629	-0.379390	0.770922	-0.141896	-0.373707	0.695834	-0.107862	-0.378968	0.669347	-0.165624	-0.350796	0.533667	-0.101512	-0.233815	0.545411	-0.076084	-0.366403	0.398399	-0.081179	-0.359211	0.423852	-0.023978	-0.362890	0.344767	0.014546	-0.371370	0.323473	-0.049948	-0.337593	0.121746	0.061059	-0.282817	0.157823	0.107653	-0.279031	0.053369	0.062355	-0.389218	0.170442	0.233119	-0.421089	0.107981	0.194924	-0.331111	0.156044	0.249753	-0.036203	0.887516	-0.261006	-0.038344	0.686280	-0.278770	-0.049965	0.673898	-0.219409	-0.068917	0.595249	-0.241655	-0.057286	0.604406	-0.304283	-0.077720	0.516215	-0.310937	-0.182914	0.535391	-0.295073	-0.075636	0.311472	-0.408987	-0.093136	0.299997	-0.347430	-0.107478	0.218275	-0.377147	-0.090230	0.234462	-0.435459	-0.123964	0.104964	-0.468739	-0.196236	0.121399	-0.427034	-0.179510	0.061235	-0.524461	-0.107206	0.054306	-0.297128	-0.066307	0.043825	-0.356006	-0.161391	0.049465	-0.305326
68	0.670000	-0.306602	0.947299	-0.148427	-0.259963	0.982253	-0.337528	-0.163949	0.975309	-0.338534	-0.080280	0.950577	-0.159601	-0.371299	0.869509	-0.206753	-0.384465	0.749045	-0.193788	-0.378552	0.768385	-0.129893	-0.372472	0.693212	-0.096155	-0.378050	0.667015	-0.154283	-0.349859	0.531410	-0.090620	-0.232224	0.542619	-0.065992	-0.364709	0.395927	-0.069507	-0.359277	0.422228	-0.012014	-0.362713	0.344411	0.028255	-0.369252	0.321352	-0.034900	-0.336822	0.122547	0.080868	-0.283412	0.161097	0.127651	-0.276789	0.055151	0.085710	-0.392646	0.175527	0.250566	-0.423157	0.111989	0.212446	-0.334119	0.162830	0.268371	-0.037828	0.884900	-0.249994	-0.038520	0.684978	-0.269883	-0.050378	0.672542	-0.210246	-0.069131	0.593376	-0.233270	-0.057687	0.603250	-0.296035	-0.078468	0.515509	-0.303365	-0.182520	0.534346	-0.286289	-0.076369	0.311953	-0.404636	-0.093549	0.299590	-0.343360	-0.107863	0.218144	-0.374366	-0.090759	0.235549	-0.432351	-0.124541	0.106474	-0.467726	-0.196938	0.121836	-0.425386	-0.180382	0.062240	-0.523829	-0.107442	0.053913	-0.296849	-0.066589	0.043746	-0.355614	-0.161466	0.049675	-0.305266
69	0.680000	-0.306418	0.944965	-0.135726	-0.261268	0.980239	-0.325117	-0.165475	0.973611	-0.327047	-0.079975	0.948477	-0.148700	-0.371503	0.867251	-0.193416	-0.384392	0.746901	-0.180386	-0.376771	0.766841	-0.116124	-0.370558	0.691771	-0.082788	-0.377591	0.665452	-0.140578	-0.348964	0.528392	-0.077045	-0.231165	0.540247	-0.054673	-0.363174	0.393864	-0.057309	-0.360345	0.421311	-0.001831	-0.363155	0.343377	0.040754	-0.367569	0.319636	-0.021791	-0.336048	0.122554	0.098101	-0.282967	0.162558	0.145029	-0.275686	0.055584	0.105149	-0.394543	0.178502	0.266216	-0.423858	0.114086	0.229032	-0.336317	0.166626	0.284826	-0.037036	0.883931	-0.240585	-0.038891	0.683890	-0.261045	-0.050018	0.670370	-0.201749	-0.069103	0.591779	-0.224799	-0.058036	0.602395	-0.287788	-0.078580	0.514147	-0.295815	-0.182599	0.532973	-0.277784	-0.077061	0.312464	-0.400244	-0.093961	0.299133	-0.339222	-0.108332	0.218168	-0.371433	-0.091628	0.236492	-0.429165	-0.125295	0.108275	-0.466855	-0.197435	0.122522	-0.423788	-0.180917	0.063523	-0.523273	-0.107665	0.053579	-0.296660	-0.066649	0.043743	-0.354981	-0.161574	0.049486	-0.304942
70	0.690000	-0.306278	0.943004	-0.123054	-0.262687	0.978534	-0.312956	-0.166966	0.971908	-0.315356	-0.079913	0.946685	-0.137772	-0.371666	0.865296	-0.180009	-0.384324	0.744908	-0.164136	-0.374892	0.766233	-0.101496	-0.368515	0.691102	-0.067362	-0.377910	0.664578	-0.125101	-0.348369	0.527002	-0.062991	-0.230793	0.538727	-0.041986	-0.362244	0.391925	-0.044586	-0.359778	0.419713	0.012185	-0.363376	0.342287	0.053948	-0.366310	0.317885	-0.008577	-0.335472	0.121783	0.112622	-0.282288	0.161284	0.159646	-0.275665	0.054221	0.120131	-0.394258	0.178973	0.280260	-0.423754	0.113920	0.244155	-0.336130	0.166459	0.299063	-0.039115	0.881929	-0.229822	-0.039306	0.682962	-0.252387	-0.049861	0.669293	-0.192461	-0.069031	0.590369	-0.216190	-0.058469	0.601239	-0.279127	-0.079117	0.513603	-0.287927	-0.182593	0.531701	-0.268630	-0.077423	0.313490	-0.395762	-0.094108	0.298542	-0.334658	-0.107826	0.218200	-0.368580	-0.092021	0.237822	-0.425945	-0.125583	0.110029	-0.465658	-0.197617	0.123789	-0.422245	-0.181008	0.065945	-0.522551	-0.107877	0.053133	-0.296329	-0.066832	0.043928	-0.354971	-0.161874	0.049185	-0.304612
